<?xml version="1.0" standalone="no"?>
<svg viewBox="0 0 200 200" xmlns="http://www.w3.org/2000/svg">
  <path fill="#FF0066" d="M34.3,-55.4C45.3,-46.2,55.8,-38.3,62.9,-27.4C69.9,-16.5,73.6,-2.7,73.7,12C73.8,26.8,70.4,42.4,60.1,49C49.7,55.7,32.3,53.2,18,54.3C3.6,55.4,-7.7,60,-16.3,56.9C-25,53.8,-31,42.9,-39.7,33.8C-48.3,24.8,-59.6,17.5,-64,7.3C-68.4,-2.8,-65.9,-15.9,-59.7,-26.4C-53.5,-36.9,-43.7,-44.9,-33.2,-54.2C-22.6,-63.6,-11.3,-74.4,0.2,-74.6C11.6,-74.9,23.2,-64.6,34.3,-55.4Z" transform="translate(100 100)" />
</svg>
